<svg xmlns="http://www.w3.org/2000/svg" viewBox="0 0 24 24"><path fill="#E4405F" d="M12 2.163c3.2 0 3.584.012 4.85.07 1.17.056 1.97.248 2.427.415a4.92 4.92 0 011.675 1.09 4.92 4.92 0 011.09 1.675c.167.457.359 1.257.415 2.427.058 1.266.07 1.65.07 4.85s-.012 3.584-.07 4.85c-.056 1.17-.248 1.97-.415 2.427a4.92 4.92 0 01-1.09 1.675 4.92 4.92 0 01-1.675 1.09c-.457.167-1.257.359-2.427.415-1.266.058-1.65.07-4.85.07s-3.584-.012-4.85-.07c-1.17-.056-1.97-.248-2.427-.415a4.92 4.92 0 01-1.675-1.09 4.92 4.92 0 01-1.09-1.675c-.167-.457-.359-1.257-.415-2.427C2.175 15.747 2.163 15.363 2.163 12s.012-3.584.07-4.85c.056-1.17.248-1.97.415-2.427a4.92 4.92 0 011.09-1.675 4.92 4.92 0 011.675-1.09c.457-.167 1.257-.359 2.427-.415C8.416 2.175 8.8 2.163 12 2.163zm0-2.163C8.741 0 8.332.013 7.052.072 5.775.131 4.897.304 4.158.555a7.075 7.075 0 00-2.57 1.67A7.075 7.075 0 00.555 4.158c-.251.739-.424 1.617-.483 2.894C.013 8.332 0 8.741 0 12s.013 3.668.072 4.948c.059 1.277.232 2.155.483 2.894a7.075 7.075 0 001.67 2.57 7.075 7.075 0 002.57 1.67c.739.251 1.617.424 2.894.483C8.332 23.987 8.741 24 12 24s3.668-.013 4.948-.072c1.277-.059 2.155-.232 2.894-.483a7.075 7.075 0 002.57-1.67 7.075 7.075 0 001.67-2.57c.251-.739.424-1.617.483-2.894.059-1.28.072-1.689.072-4.948s-.013-3.668-.072-4.948c-.059-1.277-.232-2.155-.483-2.894a7.075 7.075 0 00-1.67-2.57A7.075 7.075 0 0019.842.555c-.739-.251-1.617-.424-2.894-.483C15.668.013 15.259 0 12 0zm0 5.838a6.162 6.162 0 100 12.324 6.162 6.162 0 000-12.324zm0 10.162a3.999 3.999 0 110-7.998 3.999 3.999 0 010 7.998zm6.406-11.845a1.44 1.44 0 11-2.882 0 1.44 1.44 0 012.882 0z"/></svg>
