<svg xmlns="http://www.w3.org/2000/svg" viewBox="0 0 24 24"><path fill="#0077B5" d="M20.447 20.452H17.21V15.4c0-1.206-.024-2.757-1.68-2.757-1.68 0-1.938 1.315-1.938 2.676v5.133h-3.236V9h3.106v1.561h.045c.434-.82 1.494-1.68 3.073-1.68 3.285 0 3.89 2.162 3.89 4.974v6.597zM5.337 7.433c-1.038 0-1.882-.845-1.882-1.883 0-1.038.844-1.882 1.882-1.882 1.038 0 1.883.844 1.883 1.882 0 1.038-.845 1.883-1.883 1.883zM6.886 20.452H3.789V9h3.097v11.452zM22.225 0H1.771C.792 0 0 .774 0 1.729v20.542C0 23.227.792 24 1.771 24h20.451C23.2 24 24 23.227 24 22.271V1.729C24 .774 23.2 0 22.222 0h.003z"/></svg>
