<svg xmlns="http://www.w3.org/2000/svg" viewBox="0 0 24 24"><path fill="#BD081C" d="M12 0C5.372 0 0 5.372 0 12c0 4.991 3.657 9.128 8.438 10.11-.117-.858-.223-2.177.047-3.118.244-.836 1.57-5.323 1.57-5.323s-.4-.798-.4-1.976c0-1.853 1.074-3.232 2.41-3.232 1.137 0 1.686.853 1.686 1.874 0 1.142-.73 2.847-1.106 4.431-.314 1.33.666 2.415 1.98 2.415 2.377 0 3.978-3.043 3.978-6.642 0-2.739-1.847-4.79-5.203-4.79-3.792 0-6.153 2.828-6.153 5.97 0 1.085.42 2.249.945 2.881a.38.38 0 01.087.364c-.095.401-.31 1.271-.352 1.448-.056.235-.18.285-.418.172-1.551-.723-2.521-2.985-2.521-4.806 0-3.912 2.846-7.5 8.197-7.5 4.3 0 7.649 3.061 7.649 7.154 0 4.274-2.695 7.712-6.447 7.712-1.259 0-2.444-.654-2.852-1.425l-.775 2.949c-.28 1.068-1.04 2.404-1.551 3.213A11.998 11.998 0 0112 24c6.628 0 12-5.372 12-12S18.628 0 12 0z"/></svg>
