<svg width="22" height="29" viewBox="0 0 22 29" fill="none" xmlns="http://www.w3.org/2000/svg">
<g clip-path="url(#clip0_3486_2234)">
<path d="M19.1467 2.97178C17.2199 1.0556 14.5534 0 11.6385 0C7.18627 0 4.44772 1.8908 2.93448 3.4771C1.06925 5.43206 0 8.02756 0 10.5988C0 13.8268 1.30332 16.3045 3.48589 17.2264C3.63249 17.2887 3.7798 17.3199 3.9243 17.3199C4.38475 17.3199 4.74967 17.0078 4.87598 16.5072C4.94981 16.2201 5.1202 15.5114 5.19473 15.2036C5.35357 14.5961 5.22517 14.3039 4.87878 13.8808C4.24759 13.1069 3.95369 12.192 3.95369 11.0012C3.95369 7.46388 6.49594 3.70439 11.2078 3.70439C14.9463 3.70439 17.2689 5.90585 17.2689 9.44965C17.2689 11.6859 16.8039 13.7569 15.9596 15.2815C15.3728 16.3408 14.341 17.6034 12.7568 17.6034C12.0717 17.6034 11.4562 17.3119 11.0682 16.8037C10.7015 16.3234 10.5805 15.7024 10.7281 15.0557C10.8947 14.3249 11.1221 13.5626 11.3418 12.8252C11.7428 11.4793 12.1221 10.2076 12.1221 9.19336C12.1221 7.45844 11.0924 6.29264 9.56058 6.29264C7.61347 6.29264 6.08798 8.34149 6.08798 10.9573C6.08798 12.2402 6.41687 13.1997 6.56592 13.568C6.32065 14.6446 4.86269 21.0464 4.58628 22.2535C4.42638 22.9582 3.46315 28.524 5.05757 28.9677C6.84863 29.4662 8.45005 24.0457 8.61274 23.4331C8.745 22.935 9.20684 21.0511 9.49025 19.8933C10.3548 20.756 11.7474 21.3396 13.1021 21.3396C15.6559 21.3396 17.9529 20.1488 19.5694 17.9872C21.1372 15.8905 22.0007 12.9677 22.0007 9.7585C22.0007 7.24928 20.9605 4.77594 19.1474 2.97214L19.1467 2.97178Z" fill="white"/>
</g>
<defs>
<clipPath id="clip0_3486_2234">
<rect width="22" height="29" fill="white"/>
</clipPath>
</defs>
</svg>
