<svg xmlns="http://www.w3.org/2000/svg" viewBox="0 0 24 24"><path fill="#1DA1F2" d="M23.954 4.569c-.885.389-1.83.654-2.825.774 1.014-.608 1.794-1.574 2.163-2.724-.951.564-2.004.974-3.127 1.195-.897-.957-2.178-1.555-3.594-1.555-2.72 0-4.928 2.21-4.928 4.928 0 .39.045.765.127 1.124-4.094-.206-7.723-2.165-10.148-5.144-.424.724-.666 1.562-.666 2.456 0 1.697.863 3.188 2.176 4.064-.803-.025-1.56-.247-2.224-.616v.062c0 2.37 1.685 4.348 3.918 4.798-.41.111-.845.171-1.29.171-.314 0-.615-.031-.916-.089.631 1.953 2.445 3.377 4.6 3.417-1.68 1.318-3.808 2.105-6.115 2.105-.397 0-.79-.023-1.17-.068 2.179 1.397 4.768 2.209 7.557 2.209 9.054 0 14.001-7.496 14.001-13.986 0-.213-.005-.425-.014-.636.961-.695 1.8-1.562 2.462-2.549z"/></svg>
