<svg width="27" height="25" viewBox="0 0 27 25" fill="none" xmlns="http://www.w3.org/2000/svg">
<g clip-path="url(#clip0_3486_2238)">
<path d="M26.9873 5.75476C26.8692 8.57083 25.0292 12.4299 21.4802 17.3319C17.8087 22.4471 14.6985 25.0002 12.158 25.0002C10.5839 25.0002 9.25039 23.4402 8.16583 20.3158L5.9925 11.7315C5.18224 8.60711 4.31291 7.04716 3.38872 7.04716C3.18615 7.04716 2.4814 7.50063 1.27024 8.41211L0 6.65264L3.92466 2.8888C5.69709 1.23816 7.02641 0.376561 7.91263 0.285866C10.0227 0.0727337 11.3098 1.61001 11.7951 4.94304L12.8839 11.5774C13.4873 14.5249 14.1541 16.0033 14.88 16.0033C15.4455 16.0033 16.2895 15.0464 17.4247 13.1464C18.5556 11.2418 19.1591 9.78614 19.2435 8.7885C19.4039 7.13785 18.8004 6.31253 17.4247 6.31253C16.7748 6.31253 16.1122 6.46671 15.4286 6.766C16.7241 2.1315 19.3026 -0.12226 23.0542 0.00471269C25.8395 0.0908727 27.1477 2.01814 26.9873 5.79104V5.75476Z" fill="white"/>
</g>
<defs>
<clipPath id="clip0_3486_2238">
<rect width="27" height="25" fill="white"/>
</clipPath>
</defs>
</svg>
